<svg xmlns="http://www.w3.org/2000/svg" viewBox="0 0 200 250" fill="none">
  <!-- キャラクターの体 -->
  <ellipse cx="100" cy="200" rx="60" ry="40" fill="#16a085"/>
  
  <!-- キャラクターの頭 -->
  <circle cx="100" cy="100" r="50" fill="#1abc9c"/>
  
  <!-- 顔の要素 -->
  <!-- 目 -->
  <circle cx="85" cy="95" r="8" fill="#ffffff"/>
  <circle cx="115" cy="95" r="8" fill="#ffffff"/>
  <circle cx="85" cy="97" r="5" fill="#2c3e50"/>
  <circle cx="115" cy="97" r="5" fill="#2c3e50"/>
  
  <!-- 口 -->
  <path d="M 80 115 Q 100 125 120 115" stroke="#2c3e50" stroke-width="3" fill="none" stroke-linecap="round"/>
  
  <!-- ほっぺ -->
  <circle cx="65" cy="110" r="8" fill="#ff6b9d" opacity="0.6"/>
  <circle cx="135" cy="110" r="8" fill="#ff6b9d" opacity="0.6"/>
  
  <!-- 帽子 -->
  <path d="M 50 80 Q 100 60 150 80 L 145 90 Q 100 75 55 90 Z" fill="#34495e"/>
  <rect x="95" y="70" width="10" height="20" fill="#e74c3c"/>
  
  <!-- 腕 -->
  <ellipse cx="50" cy="180" rx="20" ry="35" fill="#1abc9c" transform="rotate(-30 50 180)"/>
  <ellipse cx="150" cy="180" rx="20" ry="35" fill="#1abc9c" transform="rotate(30 150 180)"/>
  
  <!-- 本を持っている -->
  <rect x="130" y="160" width="30" height="40" fill="#3498db" transform="rotate(15 145 180)"/>
  <rect x="132" y="162" width="26" height="36" fill="#ecf0f1" transform="rotate(15 145 180)"/>
  <line x1="145" y1="165" x2="145" y2="195" stroke="#34495e" stroke-width="1" transform="rotate(15 145 180)"/>
  
  <!-- キラキラエフェクト -->
  <path d="M 30 50 L 35 60 L 45 55 L 35 50 L 35 40 L 30 50 Z" fill="#f1c40f" opacity="0.8"/>
  <path d="M 160 120 L 165 130 L 175 125 L 165 120 L 165 110 L 160 120 Z" fill="#f1c40f" opacity="0.8"/>
  <path d="M 40 140 L 42 145 L 47 143 L 42 140 L 42 135 L 40 140 Z" fill="#f1c40f" opacity="0.6"/>
</svg>